<svg width="11" height="15" viewBox="0 0 11 15" fill="none" xmlns="http://www.w3.org/2000/svg">
<path opacity="0.65" d="M9.52006 5.44062H8.88006V4.16062C8.88006 2.39422 7.44646 0.960625 5.68006 0.960625C3.91366 0.960625 2.48006 2.39422 2.48006 4.16062V5.44062H1.84006C1.13606 5.44062 0.560059 6.01662 0.560059 6.72062V13.1206C0.560059 13.8246 1.13606 14.4006 1.84006 14.4006H9.52006C10.2241 14.4006 10.8001 13.8246 10.8001 13.1206V6.72062C10.8001 6.01662 10.2241 5.44062 9.52006 5.44062ZM5.68006 11.2006C4.97606 11.2006 4.40006 10.6246 4.40006 9.92062C4.40006 9.21662 4.97606 8.64062 5.68006 8.64062C6.38406 8.64062 6.96006 9.21662 6.96006 9.92062C6.96006 10.6246 6.38406 11.2006 5.68006 11.2006ZM7.66406 5.44062H3.69606V4.16062C3.69606 3.06622 4.58566 2.17662 5.68006 2.17662C6.77446 2.17662 7.66406 3.06622 7.66406 4.16062V5.44062Z" fill="#49454F"/>
</svg>
