<svg width="4" height="16" viewBox="0 0 4 16" fill="none" xmlns="http://www.w3.org/2000/svg">
<path d="M1.99988 3.99961C3.09988 3.99961 3.99988 3.09961 3.99988 1.99961C3.99988 0.899611 3.09988 -0.000389099 1.99988 -0.000389099C0.899878 -0.000389099 -0.00012207 0.899611 -0.00012207 1.99961C-0.00012207 3.09961 0.899878 3.99961 1.99988 3.99961ZM1.99988 5.99961C0.899878 5.99961 -0.00012207 6.89961 -0.00012207 7.99961C-0.00012207 9.09961 0.899878 9.99961 1.99988 9.99961C3.09988 9.99961 3.99988 9.09961 3.99988 7.99961C3.99988 6.89961 3.09988 5.99961 1.99988 5.99961ZM1.99988 11.9996C0.899878 11.9996 -0.00012207 12.8996 -0.00012207 13.9996C-0.00012207 15.0996 0.899878 15.9996 1.99988 15.9996C3.09988 15.9996 3.99988 15.0996 3.99988 13.9996C3.99988 12.8996 3.09988 11.9996 1.99988 11.9996Z" fill="#79747E"/>
</svg>
